<!DOCTYPE svg PUBLIC "-//W3C//DTD SVG 1.1//EN" "http://www.w3.org/Graphics/SVG/1.1/DTD/svg11.dtd">
<!-- Uploaded to: SVG Repo, www.svgrepo.com, Transformed by: SVG Repo Mixer Tools -->
<svg fill="#ffffff" height="800px" width="800px" version="1.1" id="Layer_1" xmlns="http://www.w3.org/2000/svg" xmlns:xlink="http://www.w3.org/1999/xlink" viewBox="0 0 512.004 512.004" xml:space="preserve" stroke="#ffffff">
<g id="SVGRepo_bgCarrier" stroke-width="0"/>
<g id="SVGRepo_tracerCarrier" stroke-linecap="round" stroke-linejoin="round"/>
<g id="SVGRepo_iconCarrier"> <g> <g> <circle cx="153.6" cy="448.004" r="12.8"/> </g> </g> <g> <g> <circle cx="409.6" cy="448.004" r="12.8"/> </g> </g> <g> <g> <path d="M499.2,435.204h-26.889c-5.931-29.21-31.744-51.2-62.711-51.2c-30.959,0-56.781,21.99-62.711,51.2H216.277 c-5.726-28.015-29.824-49.229-59.179-50.85l-42.035-283.827c-0.401-2.722-1.673-5.222-3.61-7.177l-89.6-89.6 C16.853-1.25,8.755-1.25,3.755,3.75c-5,5-5,13.099,0,18.099l86.613,86.596l41.421,279.62 c-24.559,8.951-42.189,32.29-42.189,59.938c0,35.345,28.655,64,64,64c30.959,0,56.781-21.99,62.711-51.2h130.577 c5.931,29.21,31.753,51.2,62.711,51.2s56.781-21.99,62.711-51.2H499.2c7.074,0,12.8-5.726,12.8-12.8 C512,440.93,506.274,435.204,499.2,435.204z M153.6,486.404c-21.171,0-38.4-17.229-38.4-38.4c0-21.171,17.229-38.4,38.4-38.4 c21.171,0,38.4,17.229,38.4,38.4C192,469.175,174.771,486.404,153.6,486.404z M409.6,486.404c-21.171,0-38.4-17.229-38.4-38.4 c0-21.171,17.229-38.4,38.4-38.4s38.4,17.229,38.4,38.4C448,469.175,430.771,486.404,409.6,486.404z"/> </g> </g> <g> <g> <path d="M461.713,240.021L435.2,332.804H197.12l-25.6-179.2h89.941c-2.347-8.26-4.011-16.802-4.813-25.6H171.52 c-7.424,0-14.473,3.217-19.337,8.823s-7.057,13.047-5.999,20.395l25.6,179.2c1.792,12.612,12.595,21.982,25.335,21.982H435.2 c11.426,0,21.478-7.578,24.619-18.569l35.49-124.203C485.419,225.336,474.103,233.553,461.713,240.021z"/> </g> </g> <g> <g> <path d="M396.8,0.004c-63.625,0-115.2,51.576-115.2,115.2s51.575,115.2,115.2,115.2S512,178.829,512,115.204 S460.425,0.004,396.8,0.004z M396.8,204.804c-49.408,0-89.6-40.192-89.6-89.6s40.192-89.6,89.6-89.6 c49.408,0,89.6,40.192,89.6,89.6S446.208,204.804,396.8,204.804z"/> </g> </g> <g> <g> <path d="M451.106,102.404H342.494c-7.074,0-12.8,5.726-12.8,12.8c0,7.066,5.726,12.8,12.8,12.8h108.612 c3.533,0,6.733-1.434,9.054-3.746c2.321-2.313,3.746-5.513,3.746-9.054C463.906,108.13,458.18,102.404,451.106,102.404z"/> </g> </g> </g>
</svg>